<svg width="469.8" height="469.8" xmlns:xlink="http://www.w3.org/1999/xlink" xmlns="http://www.w3.org/2000/svg"><g><circle cx="234.9" cy="234.9" r="234.9" fill="#721903"></circle></g><g transform="translate(30,118.6495)" fill-rule="evenodd"><path d="M 194.935 21.342 A 38.427 38.427 0 0 0 192.9 24.3 Q 187.5 34.8 187.5 47.7 A 93.36 93.36 0 0 0 187.557 51.039 Q 187.911 60.929 190.5 63 A 12.397 12.397 0 0 0 190.814 63.369 Q 193.34 66.221 195.6 64.95 Q 198 63.6 195.9 60.45 A 10.663 10.663 0 0 1 195.077 58.968 Q 193.8 56.177 193.8 52.2 Q 193.8 40.5 209.4 24.9 Q 211.489 22.812 214.478 20.423 A 108.679 108.679 0 0 1 218.25 17.55 Q 222.413 14.513 224.466 12.572 A 15.82 15.82 0 0 0 225.6 11.4 A 10.562 10.562 0 0 0 225.916 11.013 Q 226.506 10.255 226.862 9.497 A 5.371 5.371 0 0 0 227.4 7.2 A 4.232 4.232 0 0 0 227.209 5.947 Q 226.964 5.15 226.402 4.376 A 8.481 8.481 0 0 0 225.3 3.15 A 8.796 8.796 0 0 0 225.152 3.015 A 6.817 6.817 0 0 0 220.5 1.2 A 45.533 45.533 0 0 0 219.989 1.203 Q 218.463 1.22 217.355 1.342 A 12.24 12.24 0 0 0 216.3 1.5 A 5.082 5.082 0 0 0 215.347 1.666 Q 211.225 2.772 204 10.8 Q 199.5 10.8 160.05 5.4 A 936.377 936.377 0 0 0 156.48 4.918 Q 131.603 1.61 112.967 0.527 A 288.955 288.955 0 0 0 96.3 0 Q 56.4 0 29.1 14.1 A 66.466 66.466 0 0 0 19.418 20.112 A 44.565 44.565 0 0 0 1.8 47.1 A 10.634 10.634 0 0 0 1.671 47.947 Q 1.5 49.412 1.5 51.9 A 18.551 18.551 0 0 0 1.076 53.135 Q 0 56.651 0 61.35 Q 0 66.9 7.05 75.15 Q 14.1 83.4 24.3 86.4 A 10.715 10.715 0 0 0 25.322 86.605 A 8.353 8.353 0 0 0 26.55 86.7 A 2.487 2.487 0 0 0 27.002 86.658 Q 27.826 86.506 28.65 85.8 A 1.424 1.424 0 0 0 28.883 85.551 Q 29.479 84.719 28.05 83.55 A 12.829 12.829 0 0 0 27.857 83.395 Q 26.555 82.371 23.589 80.516 A 177.215 177.215 0 0 0 21.45 79.2 A 110.408 110.408 0 0 1 20.153 78.402 Q 16.174 75.915 14.1 74.1 Q 12.75 72.919 11.638 71.263 A 20.254 20.254 0 0 1 10.05 68.4 A 24.5 24.5 0 0 1 9.223 66.375 Q 8.835 65.278 8.63 64.299 A 10.036 10.036 0 0 1 8.4 62.25 Q 8.4 59.7 9 57.9 Q 11.624 45.789 21.786 36.462 A 65.709 65.709 0 0 1 33.45 28.05 A 116.827 116.827 0 0 1 57.528 17.703 A 157.32 157.32 0 0 1 82.5 12.3 Q 98.475 10.725 109.219 10.331 A 180.753 180.753 0 0 1 115.8 10.2 A 147.934 147.934 0 0 1 119.405 10.249 Q 132.201 10.563 160.5 12.9 A 1562.568 1562.568 0 0 0 172.15 13.786 Q 189.994 15.07 200.1 15.3 Q 197.025 18.567 194.935 21.342 Z M 75.3 161.4 L 72.3 165.9 A 176.625 176.625 0 0 1 69.416 170.154 Q 64.817 176.711 61.952 179.204 A 9.233 9.233 0 0 1 60.45 180.3 A 26.87 26.87 0 0 1 58.564 181.267 Q 56.655 182.146 55.233 182.343 A 5.709 5.709 0 0 1 54.45 182.4 Q 52.2 182.4 47.55 181.35 A 30.689 30.689 0 0 1 45.994 180.959 Q 43.824 180.348 43.103 179.688 A 0.987 0.987 0 0 1 42.75 179.1 Q 42.628 178.12 42.605 175.338 A 166.443 166.443 0 0 1 42.6 174 Q 42.6 170.1 48.3 155.25 Q 54 140.4 61.5 126 A 2073.051 2073.051 0 0 1 88.885 74.194 A 1914.796 1914.796 0 0 1 89.1 73.8 Q 91.8 68.7 91.8 65.85 A 14.551 14.551 0 0 0 91.721 64.277 Q 91.533 62.555 90.9 61.5 A 22.528 22.528 0 0 1 92.921 55.99 Q 96.523 48.845 105.75 39.3 A 71.366 71.366 0 0 1 112.427 33.158 Q 121.627 25.8 129.6 25.8 Q 134.2 25.8 140.729 29.244 A 52.274 52.274 0 0 1 141.3 29.55 Q 147.404 32.867 147.404 37.945 A 9.126 9.126 0 0 1 147.3 39.3 Q 145.829 38.249 144.504 37.934 A 4.769 4.769 0 0 0 143.4 37.8 A 17.922 17.922 0 0 0 135.392 39.954 Q 125.641 44.861 113.027 60.948 A 186.192 186.192 0 0 0 111.9 62.4 A 391.96 391.96 0 0 0 70.24 129.961 A 462.49 462.49 0 0 0 58.5 156 Q 56.1 162.3 56.1 164.55 L 56.1 167.4 Q 57.3 170.4 61.05 169.2 A 11.931 11.931 0 0 0 64.577 167.334 Q 65.886 166.35 67.134 164.955 A 23.756 23.756 0 0 0 68.1 163.8 A 118.86 118.86 0 0 1 70.846 160.334 Q 76.138 153.925 78.381 153.616 A 1.608 1.608 0 0 1 78.6 153.6 Q 79.399 153.6 79.489 155.019 A 6.059 6.059 0 0 1 79.5 155.4 A 2.638 2.638 0 0 1 79.254 156.413 Q 78.618 157.901 76.343 160.325 A 47.178 47.178 0 0 1 75.3 161.4 Z" id="0" vector-effect="non-scaling-stroke" fill="#FFFFFF"></path>
<path d="M 185.713 84.446 A 24.305 24.305 0 0 0 179.4 83.7 A 29.721 29.721 0 0 0 172.464 84.597 Q 159.51 87.717 140.4 101.7 Q 124.641 113.231 115.899 124.393 A 58.192 58.192 0 0 0 108.3 136.8 Q 104.4 146.7 104.4 153.9 Q 104.4 161.1 107.7 166.2 Q 116.4 179.1 138 179.1 Q 155.03 179.1 172.745 168.688 A 121.042 121.042 0 0 0 189.9 156.3 Q 203.7 144.6 212.7 129.6 Q 213.6 128.4 213.6 127.5 A 1.277 1.277 0 0 0 213.342 126.73 Q 213.044 126.322 212.4 126 Q 211.116 124.716 209.613 126.289 A 6.715 6.715 0 0 0 209.1 126.9 A 103.967 103.967 0 0 1 188.516 149.958 A 119.555 119.555 0 0 1 156.9 168.6 A 84.512 84.512 0 0 1 152.357 170.318 Q 143.412 173.4 136.2 173.4 A 27.427 27.427 0 0 1 133.599 173.282 Q 131.23 173.056 129.291 172.399 A 12.101 12.101 0 0 1 124.2 169.2 A 16.941 16.941 0 0 1 121.94 166.191 A 11.49 11.49 0 0 1 120.3 160.35 Q 120.3 155.7 121.8 150.9 Q 126.6 135.3 142.2 118.95 Q 151.585 109.114 160.426 102.807 A 73.619 73.619 0 0 1 171.9 96 A 55.151 55.151 0 0 1 173.868 95.062 Q 179.101 92.7 182.4 92.7 A 6.828 6.828 0 0 1 184.209 92.919 Q 186.371 93.514 186.971 95.721 A 7.377 7.377 0 0 1 187.2 97.65 Q 187.2 100.86 185.56 104.259 A 24.908 24.908 0 0 1 183.3 108 A 61.894 61.894 0 0 1 175.833 115.592 Q 171.49 119.354 165.928 123.048 A 150.574 150.574 0 0 1 153.9 130.2 A 100.549 100.549 0 0 1 151.848 131.31 Q 142.433 136.258 136.2 136.8 A 2.782 2.782 0 0 0 136.032 136.805 Q 135.46 136.84 134.55 137.1 A 1.543 1.543 0 0 0 134.25 137.218 Q 133.629 137.548 133.755 138.375 A 2.433 2.433 0 0 0 133.8 138.6 A 2.365 2.365 0 0 0 134.988 140.502 Q 136.117 141.156 138.3 141 A 51.466 51.466 0 0 0 147.236 139.438 Q 151.734 138.271 156.798 136.288 A 131.758 131.758 0 0 0 166.8 131.85 Q 176.25 127.209 182.758 121.667 A 45.788 45.788 0 0 0 191.1 112.5 A 17.342 17.342 0 0 0 194.914 105.17 A 23.826 23.826 0 0 0 195.6 99.3 Q 195.6 87.113 185.713 84.446 Z" id="1" vector-effect="non-scaling-stroke" fill="#FFFFFF"></path>
<path d="M 286.5 112.5 L 264.9 129.3 A 22.044 22.044 0 0 0 265.594 134.363 Q 267.474 142.188 274.449 155.245 A 232.911 232.911 0 0 0 276 158.1 Q 278.912 163.752 282.753 166.177 A 11.568 11.568 0 0 0 289.05 168 A 14.687 14.687 0 0 0 294.713 166.747 Q 300.628 164.271 307.8 156.9 A 82.699 82.699 0 0 0 310.219 154.189 Q 316.556 146.831 332.4 126.6 A 5.377 5.377 0 0 1 332.896 126.075 Q 334.125 124.95 335.25 125.7 A 5.479 5.479 0 0 1 335.809 126.122 Q 336.6 126.811 336.6 127.5 Q 336.6 128.4 336 129.6 A 248.682 248.682 0 0 1 324.141 146.207 Q 316.271 156.272 308.4 163.8 Q 300.011 171.476 292.365 174.584 A 26.659 26.659 0 0 1 282.3 176.7 Q 279.9 176.7 277.5 176.1 A 20.467 20.467 0 0 1 267.719 170.499 Q 261.348 164.345 255.986 151.866 A 134.829 134.829 0 0 1 252 141.3 A 709.242 709.242 0 0 0 231.16 163.301 Q 199.626 198.172 192.005 218.457 A 34.81 34.81 0 0 0 189.6 228.9 A 9.224 9.224 0 0 1 189.526 230.123 Q 189.347 231.456 188.732 232.041 A 1.714 1.714 0 0 1 187.5 232.5 L 186 231.9 A 4.048 4.048 0 0 1 184.801 229.015 A 5.316 5.316 0 0 1 184.8 228.9 A 42.539 42.539 0 0 1 186.765 216.675 Q 190.029 205.831 198.713 192.687 A 160.588 160.588 0 0 1 200.7 189.75 Q 216.6 166.8 232.5 150 Q 247.196 134.473 248.309 132.528 A 0.565 0.565 0 0 0 248.4 132.3 A 26.783 26.783 0 0 0 246.591 122.785 A 35.294 35.294 0 0 0 244.2 117.75 Q 240.408 111.113 237.839 109.613 A 3.812 3.812 0 0 0 237.3 109.35 Q 234.647 108.318 231.704 110.039 A 10.555 10.555 0 0 0 231.6 110.1 A 27.96 27.96 0 0 0 227.694 113.09 Q 224.799 115.708 221.85 119.55 A 2182.516 2182.516 0 0 1 220.142 121.774 Q 216.76 126.169 216.15 126.9 Q 215.479 127.705 214.448 128.99 A 295.769 295.769 0 0 0 214.2 129.3 Q 213 130.8 211.5 132.45 Q 210 134.1 208.35 133.95 Q 206.7 133.8 206.7 132.3 Q 206.7 130.8 207.9 129.15 Q 209.1 127.5 214.95 119.7 Q 220.783 111.923 224.826 106.681 A 701.953 701.953 0 0 1 224.85 106.65 A 66.652 66.652 0 0 1 231.688 99.105 A 77.998 77.998 0 0 1 234.45 96.6 A 31.102 31.102 0 0 1 237.303 94.389 Q 240.526 92.201 243.228 91.862 A 7.814 7.814 0 0 1 244.2 91.8 A 11.539 11.539 0 0 1 250.745 93.857 A 15.124 15.124 0 0 1 252 94.8 Q 254.567 96.939 255.913 99.077 A 10.688 10.688 0 0 1 256.8 100.8 Q 257.905 103.563 259.901 110.269 A 388.405 388.405 0 0 1 260.25 111.45 A 987.995 987.995 0 0 0 261.231 114.764 Q 262.364 118.568 263.034 120.672 A 88.771 88.771 0 0 0 263.4 121.8 A 300.394 300.394 0 0 1 287.306 100.499 A 231.012 231.012 0 0 1 308.4 85.5 A 15.185 15.185 0 0 1 310.584 84.854 A 11.181 11.181 0 0 1 312.9 84.6 L 317.4 85.5 A 9.984 9.984 0 0 1 319.576 86.847 A 6.155 6.155 0 0 1 321.9 91.8 A 2.918 2.918 0 0 1 320.066 94.555 Q 318.669 95.24 316.21 95.37 A 22.982 22.982 0 0 1 315 95.4 Q 299.4 101.4 286.5 112.5 Z" id="2" vector-effect="non-scaling-stroke" fill="#FFFFFF"></path>
<path d="M 372.9 87.3 L 376.8 87 A 1904.575 1904.575 0 0 1 384.825 86.286 Q 400.828 84.9 404.85 84.9 A 24.933 24.933 0 0 1 406.406 84.944 Q 408.68 85.087 409.431 85.692 A 0.886 0.886 0 0 1 409.8 86.4 Q 409.8 88.2 402.75 90.15 A 47.736 47.736 0 0 1 399.395 90.918 Q 390.581 92.663 368.4 95.1 Q 367.369 96.956 366.054 99.238 A 473.513 473.513 0 0 1 364.8 101.4 A 208.713 208.713 0 0 0 363.26 103.9 Q 360.411 108.605 360.036 109.953 A 2.047 2.047 0 0 0 360 110.1 Q 346.496 137.108 343.095 148.587 A 27.965 27.965 0 0 0 342 153.6 A 41.441 41.441 0 0 0 341.829 155.634 Q 341.7 157.744 341.7 160.5 A 12.046 12.046 0 0 0 342.096 163.665 A 9.147 9.147 0 0 0 344.1 167.4 A 7.555 7.555 0 0 0 346.585 169.315 Q 349.731 170.785 354.215 168.906 A 21.559 21.559 0 0 0 356.1 168 Q 363.9 163.8 377.85 151.2 A 197.487 197.487 0 0 0 389.052 140.29 Q 395.606 133.35 400.5 126.6 A 2.97 2.97 0 0 1 401.031 126.076 Q 402.032 125.324 403.374 125.94 A 4.135 4.135 0 0 1 403.5 126 Q 407.611 127.918 391.195 146.108 A 320.299 320.299 0 0 1 387.9 149.7 Q 368.7 170.4 355.8 175.2 A 60.159 60.159 0 0 1 351.137 176.681 Q 346.627 177.9 343.2 177.9 A 19.131 19.131 0 0 1 336.714 176.869 Q 331.281 174.921 328.462 169.293 A 22.469 22.469 0 0 1 327.3 166.5 A 14.206 14.206 0 0 1 326.901 164.568 Q 326.763 163.582 326.72 162.455 A 27.638 27.638 0 0 1 326.7 161.4 Q 326.7 153.344 332.352 138.929 A 204.315 204.315 0 0 1 336.3 129.6 A 13.442 13.442 0 0 1 335.332 131.287 Q 332.728 135.277 324.6 144.6 A 8.245 8.245 0 0 1 323.984 145.221 Q 321.724 147.248 320.4 144.6 A 2.435 2.435 0 0 1 320.218 144.09 Q 320.1 143.608 320.1 142.95 A 2.392 2.392 0 0 1 320.239 142.184 Q 320.465 141.516 321.063 140.708 A 10.274 10.274 0 0 1 321.3 140.4 A 678.34 678.34 0 0 0 330.662 128.492 Q 334.775 123.131 338.209 118.382 A 284.668 284.668 0 0 0 344.4 109.5 Q 344.4 109.239 349.394 99.899 A 2251.301 2251.301 0 0 1 351 96.9 Q 348 97.5 344.85 97.5 A 8.028 8.028 0 0 1 343.048 97.311 Q 341.857 97.036 341.003 96.364 A 4.601 4.601 0 0 1 340.2 95.55 A 3.841 3.841 0 0 1 339.367 93.152 Q 339.367 92.164 339.838 91.045 A 7.879 7.879 0 0 1 339.9 90.9 Q 342 86.1 355.8 85.5 Q 356.079 84.942 356.877 84.903 A 2.518 2.518 0 0 1 357 84.9 L 372 57 A 79.801 79.801 0 0 1 373.925 53.394 A 92.32 92.32 0 0 1 374.7 52.05 Q 375.849 50.098 376.557 48.849 A 88.688 88.688 0 0 0 376.95 48.15 Q 377.7 46.8 378.6 45.3 A 24.197 24.197 0 0 1 379.031 44.606 Q 379.477 43.918 379.835 43.492 A 4.588 4.588 0 0 1 380.1 43.2 L 381.3 42 A 2.72 2.72 0 0 1 382.363 41.12 Q 383.994 40.289 387.564 40.209 A 34.978 34.978 0 0 1 388.35 40.2 Q 394.2 40.2 396.3 43.5 A 3.513 3.513 0 0 1 396.789 44.452 Q 397.116 45.385 397.183 46.795 A 15.981 15.981 0 0 1 397.2 47.55 A 9.209 9.209 0 0 1 396.798 50.159 Q 396.281 51.909 395.1 53.85 A 21.15 21.15 0 0 1 393.621 55.991 Q 392.774 57.06 391.882 57.841 A 9.983 9.983 0 0 1 390.6 58.8 A 12.464 12.464 0 0 0 389.127 59.867 Q 387.891 60.919 387.3 62.1 L 372.9 87.3 Z" id="3" vector-effect="non-scaling-stroke" fill="#FFFFFF"></path>
</g></svg>